<?xml version="1.0" encoding="UTF-8" standalone="no" ?>
<!DOCTYPE svg PUBLIC "-//W3C//DTD SVG 1.1//EN" "http://www.w3.org/Graphics/SVG/1.1/DTD/svg11.dtd">
<svg xmlns="http://www.w3.org/2000/svg" xmlns:xlink="http://www.w3.org/1999/xlink" version="1.1" width="1280" height="800" viewBox="0 0 1280 800" xml:space="preserve">
<desc>Created with Fabric.js 4.6.0</desc>
<defs>
</defs>
<g transform="matrix(0.8 0 0 0.79 638.92 730.93)" id="SZjAqYhNv5jIyiF0G-Zkh"  >
<path style="stroke: none; stroke-width: 1; stroke-dasharray: none; stroke-linecap: butt; stroke-dashoffset: 0; stroke-linejoin: miter; stroke-miterlimit: 4; fill: rgb(9,53,69); fill-rule: nonzero; opacity: 1;" vector-effect="non-scaling-stroke"  transform=" translate(-800, -86.25)" d="M 0 42 L 29.6889 42.48 C 59.2 43.12 118.578 44.08 177.778 34.8 C 236.978 25.52 296.356 5.68001 355.556 1.68001 C 414.756 -2.31999 474.133 9.52003 533.333 22.8 C 592.533 36.08 651.911 51.12 711.111 51.92 C 770.311 52.72 829.689 39.28 888.889 31.92 C 948.089 24.4 1007.47 22.8 1066.67 26.48 C 1125.87 30.32 1185.24 39.28 1244.44 46 C 1303.64 52.72 1363.02 56.88 1422.22 51.12 C 1481.42 45.2 1540.8 29.2 1570.31 21.2 L 1600 13.2 L 1600 171.6 L 1570.31 171.6 C 1540.8 171.6 1481.42 171.6 1422.22 171.6 C 1363.02 171.6 1303.64 171.6 1244.44 171.6 C 1185.24 171.6 1125.87 171.6 1066.67 171.6 C 1007.47 171.6 948.089 171.6 888.889 171.6 C 829.689 171.6 770.311 171.6 711.111 171.6 C 651.911 171.6 592.533 171.6 533.333 171.6 C 474.133 171.6 414.756 171.6 355.556 171.6 C 296.356 171.6 236.978 171.6 177.778 171.6 C 118.578 171.6 59.2 171.6 29.6889 171.6 L 0 171.6 L 0 42 Z" stroke-linecap="round" />
</g>
<g transform="matrix(0.8 0 0 0.8 638.92 215.75)" id="819YUpPRvhvjxzm82VOHz"  >
<path style="stroke: none; stroke-width: 1; stroke-dasharray: none; stroke-linecap: butt; stroke-dashoffset: 0; stroke-linejoin: miter; stroke-miterlimit: 4; fill: rgb(9,53,69); fill-rule: nonzero; opacity: 1;" vector-effect="non-scaling-stroke"  transform=" translate(-800, -266.67)" d="M 0 350.222 L 66.6667 342.222 C 133.333 334.222 266.667 318.222 400 340.8 C 533.333 363.2 666.667 424.356 800 447.467 C 933.333 470.578 1066.67 455.644 1200 463.644 C 1333.33 471.644 1466.67 502.578 1533.33 517.867 L 1600 533.333 L 1600 0 L 1533.33 0 C 1466.67 0 1333.33 0 1200 0 C 1066.67 0 933.333 0 800 0 C 666.667 0 533.333 0 400 0 C 266.667 0 133.333 0 66.6667 0 L 0 0 L 0 350.222 Z" stroke-linecap="round" />
</g>
</svg>